<svg class="resize-icon" viewBox="0 0 1024 1024" xmlns="http://www.w3.org/2000/svg" width="16" height="16">
    <path fill="#1b1b1b" d="m985.33333,986.8718l-189.33335,0l0,-189.94874l189.33335,0l0,189.94874m0,-379.89745l-189.33335,0l0,-189.94872l189.33335,0l0,189.94872m-378.66667,379.89745l-189.33333,0l0,-189.94874l189.33333,0l0,189.94874m0,-379.89745l-189.33333,0l0,-189.94872l189.33333,0l0,189.94872m-378.66667,379.89745l-189.33333,0l0,-189.94874l189.33333,0l0,189.94874m757.33335,-759.79491l-189.33335,0l0,-189.94872l189.33335,0l0,189.94872z"/>
</svg>